<svg width="18" height="20" viewBox="0 0 18 20" fill="none" xmlns="http://www.w3.org/2000/svg">
<path d="M17.6271 3.95077L9.27 0.0936285C9.18538 0.054465 9.09325 0.0341797 9 0.0341797C8.90675 0.0341797 8.81462 0.054465 8.73 0.0936285L0.372859 3.95077C0.261272 4.00241 0.166835 4.08497 0.100749 4.18866C0.0346621 4.29235 -0.000302287 4.41281 1.9689e-06 4.53577V15.4643C-0.000302287 15.5873 0.0346621 15.7078 0.100749 15.8115C0.166835 15.9151 0.261272 15.9977 0.372859 16.0493L8.73 19.9065C8.81462 19.9456 8.90675 19.9659 9 19.9659C9.09325 19.9659 9.18538 19.9456 9.27 19.9065L17.6271 16.0493C17.7387 15.9977 17.8332 15.9151 17.8993 15.8115C17.9653 15.7078 18.0003 15.5873 18 15.4643V4.53577C18.0003 4.41281 17.9653 4.29235 17.8993 4.18866C17.8332 4.08497 17.7387 4.00241 17.6271 3.95077ZM9 7.68577L2.17929 4.53577L9 1.38577L15.8207 4.53577L9 7.68577ZM16.7143 15.0529L9.64286 18.3186V8.80434L16.7143 5.53863V15.0529Z" fill="#78BA61"/>
</svg>
