<svg width="16" height="18" viewBox="0 0 16 18" fill="none" xmlns="http://www.w3.org/2000/svg">
<path d="M14.1765 8.58818V4.8823M14.1765 4.8823L10.4706 0.764648H1.82353C1.60512 0.764648 1.39565 0.851413 1.24121 1.00585C1.08676 1.1603 1 1.36976 1 1.58818V16.4117C1 16.6301 1.08676 16.8396 1.24121 16.994C1.39565 17.1485 1.60512 17.2352 1.82353 17.2352H5.94118M14.1765 4.8823H10.0588V0.764648M11.7059 13.9411C12.6155 13.9411 13.3529 13.2037 13.3529 12.2941C13.3529 11.3844 12.6155 10.647 11.7059 10.647C10.7962 10.647 10.0588 11.3844 10.0588 12.2941C10.0588 13.2037 10.7962 13.9411 11.7059 13.9411ZM11.7059 13.9411C12.5795 13.9411 13.4174 14.2882 14.0352 14.9059C14.6529 15.5237 15 16.3616 15 17.2352M11.7059 13.9411C10.8322 13.9411 9.99436 14.2882 9.37659 14.9059C8.75882 15.5237 8.41176 16.3616 8.41176 17.2352" stroke="#E69F5E" stroke-width="1.5" stroke-linecap="round" stroke-linejoin="round"/>
</svg>
